<svg width="26" height="26" viewBox="0 0 26 26" fill="none" xmlns="http://www.w3.org/2000/svg">
<g clip-path="url(#clip0_248_461)">
<path d="M12.995 2.342C16.467 2.342 16.875 2.358 18.246 2.419C19.516 2.476 20.202 2.688 20.661 2.869C21.2258 3.07668 21.7369 3.40811 22.157 3.839C22.611 4.292 22.894 4.725 23.127 5.334C23.302 5.794 23.519 6.479 23.575 7.748C23.637 9.121 23.653 9.528 23.653 13C23.653 16.472 23.637 16.88 23.575 18.252C23.519 19.521 23.307 20.207 23.127 20.666C22.9193 21.2308 22.5879 21.7419 22.157 22.162C21.7383 22.5946 21.2268 22.9263 20.661 23.132C20.201 23.307 19.515 23.524 18.246 23.581C16.874 23.642 16.466 23.658 12.995 23.658C9.523 23.658 9.115 23.642 7.743 23.581C6.474 23.524 5.788 23.312 5.329 23.131C4.76421 22.9233 4.25306 22.5919 3.833 22.161C3.40055 21.7426 3.06886 21.2314 2.863 20.666C2.688 20.206 2.471 19.521 2.414 18.252C2.352 16.879 2.337 16.472 2.337 13C2.337 9.528 2.352 9.12 2.414 7.748C2.471 6.479 2.683 5.793 2.864 5.334C3.07138 4.76931 3.40247 4.25816 3.833 3.838C4.25167 3.40542 4.76324 3.07373 5.329 2.868C5.789 2.693 6.474 2.476 7.743 2.419C9.115 2.352 9.528 2.342 12.995 2.342ZM12.995 0C9.466 0 9.023 0.015 7.635 0.077C6.252 0.14 5.308 0.361 4.483 0.681C3.61578 1.0071 2.83066 1.51947 2.183 2.182C1.52289 2.83184 1.01059 3.61632 0.681 4.482C0.361 5.308 0.139 6.252 0.077 7.64C0.015 9.023 0 9.466 0 12.995C0 16.523 0.015 16.967 0.077 18.355C0.139 19.737 0.361 20.681 0.681 21.512C1.011 22.368 1.46 23.09 2.182 23.812C2.83184 24.4721 3.61632 24.9844 4.482 25.314C5.308 25.634 6.252 25.856 7.64 25.918C9.028 25.979 9.466 25.995 13 25.995C16.534 25.995 16.972 25.979 18.36 25.917C19.743 25.856 20.686 25.634 21.517 25.314C22.3842 24.9878 23.1693 24.4755 23.817 23.813C24.4773 23.1629 24.9896 22.3781 25.319 21.512C25.639 20.686 25.861 19.742 25.923 18.355C25.985 16.967 26 16.529 26 12.995C26 9.461 25.985 9.023 25.923 7.635C25.861 6.252 25.639 5.308 25.319 4.478C24.993 3.61042 24.4806 2.82495 23.818 2.177C23.168 1.51728 22.3836 1.00533 21.518 0.676C20.692 0.356 19.748 0.134 18.36 0.072C16.967 0.015 16.523 0 12.995 0Z" fill="white"/>
<path d="M12.995 6.32505C12.1182 6.32518 11.25 6.498 10.44 6.83365C9.63007 7.16929 8.89413 7.66119 8.27425 8.28126C7.65438 8.90132 7.1627 9.6374 6.82729 10.4475C6.49189 11.2576 6.31933 12.1258 6.31946 13.0025C6.31959 13.8793 6.49241 14.7475 6.82806 15.5575C7.16371 16.3674 7.6556 17.1034 8.27567 17.7233C8.89573 18.3431 9.63181 18.8348 10.4419 19.1702C11.252 19.5056 12.1202 19.6782 12.997 19.678C14.7677 19.6778 16.4658 18.9741 17.7177 17.7218C18.9696 16.4696 19.6727 14.7713 19.6725 13.0005C19.6722 11.2298 18.9685 9.53174 17.7162 8.27984C16.464 7.02794 14.7657 6.32478 12.995 6.32505ZM12.995 17.328C12.4205 17.3368 11.85 17.2313 11.3167 17.0175C10.7833 16.8038 10.2979 16.4861 9.88846 16.083C9.47907 15.6799 9.15393 15.1993 8.93199 14.6694C8.71004 14.1394 8.5957 13.5706 8.59564 12.9961C8.59557 12.4215 8.70977 11.8527 8.9316 11.3227C9.15343 10.7926 9.47845 10.3121 9.88775 9.90883C10.297 9.50561 10.7825 9.18781 11.3157 8.97394C11.849 8.76007 12.4195 8.65439 12.994 8.66305C14.1316 8.68033 15.2168 9.14439 16.0152 9.95501C16.8136 10.7656 17.2611 11.8578 17.2611 12.9955C17.2611 14.1333 16.8136 15.2255 16.0152 16.0361C15.2168 16.8467 14.1316 17.3108 12.994 17.328H12.995ZM19.933 7.61405C20.1376 7.61405 20.3402 7.57375 20.5292 7.49545C20.7182 7.41715 20.89 7.30239 21.0346 7.15772C21.1793 7.01305 21.2941 6.84129 21.3724 6.65227C21.4507 6.46324 21.491 6.26065 21.491 6.05605C21.491 5.85145 21.4507 5.64885 21.3724 5.45983C21.2941 5.2708 21.1793 5.09905 21.0346 4.95437C20.89 4.8097 20.7182 4.69494 20.5292 4.61664C20.3402 4.53835 20.1376 4.49805 19.933 4.49805C19.5198 4.49805 19.1235 4.66219 18.8313 4.95437C18.5391 5.24656 18.375 5.64284 18.375 6.05605C18.375 6.46925 18.5391 6.86554 18.8313 7.15772C19.1235 7.4499 19.5198 7.61405 19.933 7.61405Z" fill="white"/>
</g>
<defs>
<clipPath id="clip0_248_461">
<rect width="26" height="26" fill="white"/>
</clipPath>
</defs>
</svg>
