<svg width="27" height="26" viewBox="0 0 27 26" fill="none" xmlns="http://www.w3.org/2000/svg">
<g clip-path="url(#clip0_248_468)">
<path fill-rule="evenodd" clip-rule="evenodd" d="M14.5949 7.93H9.44695V24.64H14.8059V16.578C14.8059 14.447 15.2259 12.39 18.0179 12.39C20.7649 12.39 20.8099 14.822 20.8099 16.713V24.64H26.1699V15.693C26.1699 11.309 25.1639 7.932 19.7439 7.932C17.1329 7.932 15.3909 9.268 14.6709 10.559H14.5959V7.93H14.5949ZM2.96295 6.085C3.7031 6.08394 4.41265 5.78945 4.93602 5.26607C5.45939 4.7427 5.75389 4.03316 5.75495 3.293C5.75415 2.55249 5.45963 1.84254 4.93602 1.31893C4.4124 0.795311 3.70245 0.500794 2.96195 0.5C2.22161 0.500794 1.51181 0.795173 0.988226 1.31857C0.464638 1.84197 0.170004 2.55167 0.168945 3.292C0.170004 4.03233 0.464638 4.74203 0.988226 5.26543C1.51181 5.78883 2.22161 6.08321 2.96195 6.084L2.96295 6.085ZM5.75495 7.932H0.183945V24.64H5.75395V7.93L5.75495 7.932Z" fill="white"/>
</g>
<defs>
<clipPath id="clip0_248_468">
<rect width="27" height="25" fill="white" transform="translate(0 0.5)"/>
</clipPath>
</defs>
</svg>
