<svg width="21" height="21" viewBox="0 0 21 21" fill="none" xmlns="http://www.w3.org/2000/svg">
<path d="M2.47556 10.3887C1.57946 8.82609 1.14677 7.55018 0.885879 6.25684C0.500014 4.34403 1.38305 2.47551 2.84587 1.28325C3.46412 0.77935 4.17284 0.951516 4.53843 1.6074L5.36379 3.08812C6.018 4.26179 6.3451 4.84861 6.28022 5.47077C6.21535 6.09292 5.77421 6.59963 4.89192 7.61307L2.47556 10.3887ZM2.47556 10.3887C4.28937 13.5513 7.13579 16.3993 10.3021 18.2152M10.3021 18.2152C11.8647 19.1113 13.1406 19.544 14.4339 19.8049C16.3467 20.1908 18.2153 19.3077 19.4075 17.8449C19.9114 17.2267 19.7393 16.518 19.0834 16.1523L17.6027 15.327C16.429 14.6728 15.8422 14.3457 15.22 14.4106C14.5978 14.4754 14.0911 14.9165 13.0777 15.7988L10.3021 18.2152Z" stroke="#111111" stroke-opacity="0.8" stroke-width="1.41786" stroke-linejoin="round"/>
</svg>
