<svg id="visual" viewBox="0 0 600 900" width="600" height="900" xmlns="http://www.w3.org/2000/svg" xmlns:xlink="http://www.w3.org/1999/xlink" version="1.1"><path d="M0 95L100 89L200 96L300 95L400 101L500 96L600 99L600 0L500 0L400 0L300 0L200 0L100 0L0 0Z" fill="#ebf0fa"></path><path d="M0 68L100 81L200 71L300 74L400 71L500 71L600 69L600 0L500 0L400 0L300 0L200 0L100 0L0 0Z" fill="#aec1ed"></path><path d="M0 55L100 53L200 57L300 50L400 56L500 51L600 57L600 0L500 0L400 0L300 0L200 0L100 0L0 0Z" fill="#7493de"></path><path d="M0 32L100 36L200 35L300 37L400 34L500 38L600 34L600 0L500 0L400 0L300 0L200 0L100 0L0 0Z" fill="#3366cc"></path></svg>